<mxfile host="app.diagrams.net" modified="2021-03-04T04:42:55.658Z" agent="5.0 (Macintosh)" etag="TbUW6lfXnaG2FxrSAt66" version="14.4.4" type="github">
  <diagram id="zMYpCoSei2aacMe3c_rN" name="Page-1">
    <mxGraphModel dx="701" dy="423" grid="0" gridSize="10" guides="1" tooltips="1" connect="1" arrows="1" fold="1" page="1" pageScale="1" pageWidth="850" pageHeight="1100" math="0" shadow="0">
      <root>
        <mxCell id="0" />
        <mxCell id="1" parent="0" />
        <mxCell id="tksjdtDxkMsfgXNRaNmm-1" value="AS A " style="rounded=0;whiteSpace=wrap;html=1;fontFamily=Courier New;" parent="1" vertex="1">
          <mxGeometry x="210" y="110" width="130" height="60" as="geometry" />
        </mxCell>
        <mxCell id="tksjdtDxkMsfgXNRaNmm-2" value="I WANT" style="rounded=0;whiteSpace=wrap;html=1;fontFamily=Courier New;" parent="1" vertex="1">
          <mxGeometry x="210" y="245" width="130" height="60" as="geometry" />
        </mxCell>
        <mxCell id="tksjdtDxkMsfgXNRaNmm-5" value="SO THAT" style="rounded=0;whiteSpace=wrap;html=1;fontFamily=Courier New;" parent="1" vertex="1">
          <mxGeometry x="210" y="370" width="120" height="60" as="geometry" />
        </mxCell>
        <mxCell id="tksjdtDxkMsfgXNRaNmm-7" value="&amp;lt;BENEFIT&amp;gt;" style="rounded=0;whiteSpace=wrap;html=1;fontFamily=Courier New;" parent="1" vertex="1">
          <mxGeometry x="365" y="370" width="120" height="60" as="geometry" />
        </mxCell>
        <mxCell id="tksjdtDxkMsfgXNRaNmm-13" value="" style="shape=singleArrow;direction=south;whiteSpace=wrap;html=1;fontFamily=Courier New;" parent="1" vertex="1">
          <mxGeometry x="510" y="590" width="60" height="100" as="geometry" />
        </mxCell>
        <mxCell id="tksjdtDxkMsfgXNRaNmm-19" value="&lt;div align=&quot;center&quot;&gt;&amp;lt;SOME PRECONDITION&amp;gt;&lt;/div&gt;" style="rounded=0;whiteSpace=wrap;html=1;sketch=0;fontFamily=Courier New;align=center;" parent="1" vertex="1">
          <mxGeometry x="350" y="480" width="140" height="80" as="geometry" />
        </mxCell>
        <mxCell id="tksjdtDxkMsfgXNRaNmm-20" value="&amp;lt;SOME GOAL&amp;gt;" style="rounded=0;whiteSpace=wrap;html=1;sketch=0;fontFamily=Courier New;" parent="1" vertex="1">
          <mxGeometry x="365" y="245" width="120" height="60" as="geometry" />
        </mxCell>
        <mxCell id="tksjdtDxkMsfgXNRaNmm-21" value="&amp;lt;TYPE OF USER&amp;gt;" style="rounded=0;whiteSpace=wrap;html=1;sketch=0;fontFamily=Courier New;" parent="1" vertex="1">
          <mxGeometry x="365" y="110" width="120" height="60" as="geometry" />
        </mxCell>
        <mxCell id="tksjdtDxkMsfgXNRaNmm-22" value="&amp;lt; I DO SOME ACTION&amp;gt;" style="rounded=0;whiteSpace=wrap;html=1;sketch=0;fontFamily=Courier New;" parent="1" vertex="1">
          <mxGeometry x="355" y="600" width="130" height="60" as="geometry" />
        </mxCell>
        <mxCell id="tksjdtDxkMsfgXNRaNmm-23" value="WHEN" style="rounded=0;whiteSpace=wrap;html=1;sketch=0;fontFamily=Courier New;" parent="1" vertex="1">
          <mxGeometry x="210" y="600" width="120" height="60" as="geometry" />
        </mxCell>
        <mxCell id="tksjdtDxkMsfgXNRaNmm-24" value="GIVEN" style="rounded=0;whiteSpace=wrap;html=1;sketch=0;fontFamily=Courier New;" parent="1" vertex="1">
          <mxGeometry x="210" y="480" width="120" height="60" as="geometry" />
        </mxCell>
        <mxCell id="tksjdtDxkMsfgXNRaNmm-25" value="&amp;lt; I EXPECT SOME RESULT&amp;gt;" style="rounded=0;whiteSpace=wrap;html=1;sketch=0;fontFamily=Courier New;" parent="1" vertex="1">
          <mxGeometry x="360" y="700" width="120" height="60" as="geometry" />
        </mxCell>
        <mxCell id="tksjdtDxkMsfgXNRaNmm-26" value="THEN" style="rounded=0;whiteSpace=wrap;html=1;sketch=0;fontFamily=Courier New;" parent="1" vertex="1">
          <mxGeometry x="210" y="700" width="120" height="60" as="geometry" />
        </mxCell>
        <mxCell id="tksjdtDxkMsfgXNRaNmm-27" value="USERS" style="rounded=0;whiteSpace=wrap;html=1;sketch=0;fontFamily=Courier New;" parent="1" vertex="1">
          <mxGeometry x="580" y="110" width="140" height="110" as="geometry" />
        </mxCell>
        <mxCell id="tksjdtDxkMsfgXNRaNmm-28" value="&lt;div&gt;CREATE TICKET&lt;/div&gt;&lt;div&gt;TO GET HELP &lt;br&gt;&lt;/div&gt;&lt;div&gt;&lt;br&gt;&lt;/div&gt;" style="rounded=0;whiteSpace=wrap;html=1;sketch=0;fontFamily=Courier New;" parent="1" vertex="1">
          <mxGeometry x="580" y="232.5" width="140" height="112.5" as="geometry" />
        </mxCell>
        <mxCell id="tksjdtDxkMsfgXNRaNmm-33" style="edgeStyle=orthogonalEdgeStyle;curved=0;rounded=1;sketch=0;orthogonalLoop=1;jettySize=auto;html=1;exitX=0.5;exitY=1;exitDx=0;exitDy=0;fontFamily=Courier New;" parent="1" source="tksjdtDxkMsfgXNRaNmm-27" target="tksjdtDxkMsfgXNRaNmm-27" edge="1">
          <mxGeometry relative="1" as="geometry" />
        </mxCell>
        <mxCell id="tksjdtDxkMsfgXNRaNmm-39" value="" style="shape=singleArrow;direction=south;whiteSpace=wrap;html=1;fontFamily=Courier New;" parent="1" vertex="1">
          <mxGeometry x="510" y="480" width="60" height="100" as="geometry" />
        </mxCell>
        <mxCell id="tksjdtDxkMsfgXNRaNmm-40" value="" style="shape=singleArrow;direction=south;whiteSpace=wrap;html=1;fontFamily=Courier New;" parent="1" vertex="1">
          <mxGeometry x="510" y="110" width="60" height="100" as="geometry" />
        </mxCell>
        <mxCell id="tksjdtDxkMsfgXNRaNmm-41" value="" style="shape=singleArrow;direction=south;whiteSpace=wrap;html=1;fontFamily=Courier New;" parent="1" vertex="1">
          <mxGeometry x="510" y="245" width="60" height="100" as="geometry" />
        </mxCell>
        <mxCell id="tksjdtDxkMsfgXNRaNmm-42" value="" style="shape=singleArrow;direction=south;whiteSpace=wrap;html=1;fontFamily=Courier New;" parent="1" vertex="1">
          <mxGeometry x="510" y="370" width="60" height="100" as="geometry" />
        </mxCell>
        <mxCell id="tksjdtDxkMsfgXNRaNmm-52" value="SERVICE TICKET MANAGER" style="rounded=0;whiteSpace=wrap;html=1;sketch=0;fontFamily=Courier New;" parent="1" vertex="1">
          <mxGeometry x="350" y="10" width="265" height="60" as="geometry" />
        </mxCell>
        <mxCell id="tksjdtDxkMsfgXNRaNmm-59" value="THE ISSUE CAN BE RESOLVED" style="rounded=0;whiteSpace=wrap;html=1;sketch=0;fontFamily=Courier New;" parent="1" vertex="1">
          <mxGeometry x="580" y="360" width="140" height="90" as="geometry" />
        </mxCell>
        <mxCell id="tksjdtDxkMsfgXNRaNmm-71" value="" style="shape=singleArrow;direction=south;whiteSpace=wrap;html=1;fontFamily=Courier New;" parent="1" vertex="1">
          <mxGeometry x="510" y="700" width="60" height="100" as="geometry" />
        </mxCell>
        <mxCell id="tksjdtDxkMsfgXNRaNmm-73" value="&lt;font face=&quot;Courier New&quot;&gt;USER CAN ASSIGN TICKET TO DEPARTMENT&lt;/font&gt;" style="rounded=0;whiteSpace=wrap;html=1;sketch=0;" parent="1" vertex="1">
          <mxGeometry x="580" y="460" width="140" height="140" as="geometry" />
        </mxCell>
        <mxCell id="tksjdtDxkMsfgXNRaNmm-75" value="&lt;font face=&quot;Courier New&quot;&gt;ISSUE IS PUT IN A TABLE &lt;br&gt;&lt;/font&gt;" style="rounded=0;whiteSpace=wrap;html=1;sketch=0;" parent="1" vertex="1">
          <mxGeometry x="580" y="610" width="140" height="60" as="geometry" />
        </mxCell>
        <mxCell id="tksjdtDxkMsfgXNRaNmm-76" value="&lt;font face=&quot;Courier New&quot;&gt;USER WOULD SEE THE TICKET APPEAR ON THE LIST ON THE MAIN PAGE &lt;/font&gt;" style="rounded=0;whiteSpace=wrap;html=1;sketch=0;" parent="1" vertex="1">
          <mxGeometry x="580" y="700" width="140" height="150" as="geometry" />
        </mxCell>
      </root>
    </mxGraphModel>
  </diagram>
</mxfile>
